# xmcd CD database file
#
# Track frame offsets:
#	182
#	28357
#	54912
#	85137
#	110220
#	141735
#	163467
#	198070
#
# Disc length: 3003 seconds
#
# Revision: 0
# Processed by: cddbd v1.5.1PL2 Copyright (c) Steve Scherf et al.
# Submitted via: CDex 1.51
#
DISCID=770bb908
DTITLE=Michel Perez - Orange
DYEAR=1990
DGENRE=Jazz
TTITLE0=Virgile
TTITLE1=Very Early
TTITLE2=Orange
TTITLE3=Double Image
TTITLE4=A G E
TTITLE5=Bleu
TTITLE6=Toujours
TTITLE7=04 - 04
EXTD=YEAR: 1990
EXTT0=
EXTT1=
EXTT2=
EXTT3=
EXTT4=
EXTT5=
EXTT6=
EXTT7=
PLAYORDER=
